<?xml version="1.0" encoding="utf-8"?>
<!-- Generator: Adobe Illustrator 26.3.1, SVG Export Plug-In . SVG Version: 6.00 Build 0)  -->
<svg version="1.1" id="Layer_1" xmlns="http://www.w3.org/2000/svg" xmlns:xlink="http://www.w3.org/1999/xlink" x="0px" y="0px"
	 viewBox="0 0 547.2 209.8" style="enable-background:new 0 0 547.2 209.8;" xml:space="preserve">
<style type="text/css">
	.st0{display:none;}
	.st1{display:inline;fill:#1D1D1B;}
	.st2{font-family:'DrukTextWide-Super';}
	.st3{font-size:72px;}
	.st4{display:inline;}
	.st5{fill:#1D1D1B;}
	.st6{display:inline;fill:#FFFFFF;}
	.st7{fill:#FFFFFF;}
</style>
<g id="Layer_1_00000138542878097963450840000015980810455663233196_" class="st0">
	
		<text transform="matrix(1 0 0 1 65.526 -168.9675)" class="st1" style="font-family:'Joyama-Regular'; font-size:148.6753px; letter-spacing:2;">RENGA</text>
	
		<text transform="matrix(1 0 0 1 65.526 -168.9675)" style="display:inline;fill:none;stroke:#1D1D1B;stroke-width:27;stroke-miterlimit:10; font-family:'Joyama-Regular'; font-size:148.6753px; letter-spacing:2;">RENGA</text>
	
		<text transform="matrix(1 0 0 1 48.2443 -19.3908)" class="st1" style="font-family:'Joyama-Regular'; font-size:166.5748px; letter-spacing:3;">RENGA</text>
	<text transform="matrix(1 0 0 1 14.5514 253.8132)" class="st1 st2 st3">RENGA</text>
	
		<text transform="matrix(1 0 0 1 111.5387 363.3445)" class="st1" style="font-family:'Rounded'; font-size:143.4969px; letter-spacing:2;">RENGA</text>
	<text transform="matrix(1 0 0 1 216.5651 417.6355)" class="st1 st3" style="font-family:'Mikiyu-Font-Mokomor-kuro';">RENGA</text>
</g>
<g id="Layer_2_00000031167322703313383910000002990647091645665181_" class="st0">
	<g class="st4">
		<path class="st5" d="M48.5-121.8H3.3v-168.1h70.2c14.9,0,28.2,9.3,28.2,31.4v16.7c0,18.1-8.6,25.3-16,28.9
			c7.9,2.9,16.5,11.5,16.5,23.9v45.4c0.1,9.5-0.1,22.2,0.1,21.7H57c-0.2-3.1-0.2-6.5-0.2-10.8v-48.6c0-3.6-0.5-6.1-4.7-6.1h-3.6
			L48.5-121.8L48.5-121.8z M48.5-223.4h3.6c3.2,0,4.7-2,4.7-5.9v-22.4c0-4.3-0.7-6.1-4.5-6.1h-3.8L48.5-223.4L48.5-223.4z"/>
		<path class="st5" d="M190-289.9v40.4h-33.2v20.1h27.3v41.3h-27.3v25.3h34.3v40.9h-78.4v-168.1H190z"/>
		<path class="st5" d="M247.1-289.9l17.4,76.3v-76.3h38v168.1h-40.7l-21-82.9v82.9h-38.4v-168.1H247.1z"/>
		<path class="st5" d="M350.9-121.8c-24.9,0-36.2-17.8-36.2-41.3V-246c0-25.1,12.4-46.3,47.9-46.3h6.5c36.4,0,46.5,21.5,46.5,41.8
			v20.6H372v-21.2c0-2.5-1.9-4.6-4.4-4.8c-5.1-0.4-6.2,2.1-6.2,6.7v86.3c0,5.6,2.3,8.4,6.5,8.4s6.5-2.7,6.5-8.4v-25.8h-9.7v-33.7
			h52.9v100.5h-36.5c-0.1-3.2,0-3.8-0.2-8.9c-6.5,9.2-14,8.9-28.7,8.9H350.9z"/>
		<path class="st5" d="M482.7-142.6h-16.5l-2,20.8h-38.9l21.9-168.1H504l24.4,168.1h-43.6L482.7-142.6z M470.1-180.3h8.8l-4.5-44.3
			L470.1-180.3z"/>
	</g>
	<g class="st4">
		<path class="st5" d="M105,94.9H60.6c0-3.6,0.1-7.2,0.1-14.5V22.3c0-6.7-1.3-9.7-7.5-9.7H47v82.1H2.6v-200.2h69.7
			c19.6,0,33.1,11.6,33.1,35.2v26.4c0,18.6-9.7,26.9-17.5,30.4c7.5,3,17.5,11.3,17.5,26.1v66.2 M47-25.1h5.7c5.7,0,8.1-2.4,8.1-9.7
			v-26.9c0-7.3-1.1-9.4-7.3-9.4H47L47-25.1L47-25.1z"/>
		<path class="st5" d="M198-105.6v41.4h-39.3V-30h31.5v42.5h-31.5v39.8h40.9v42.2h-84.8v-200.2L198-105.6L198-105.6z"/>
		<path class="st5" d="M249.9-105.6l22.9,96.9v-96.9h37.9V94.6h-39L245.3-9.8V94.6h-38.5v-200.2
			C206.9-105.6,249.9-105.6,249.9-105.6z"/>
		<path class="st5" d="M357.1,94.6c-25,0-37-20.3-37-44.8V-57.4c0-26.9,12.4-50.9,49-50.9h7.5c39,0,48.2,24,48.2,48.2V-37h-43.1
			v-22.6c0-6.5-1.6-10.5-8.1-10.5c-5.1,0-7.5,3.5-7.5,10.5V47.8c0,7.8,3,11.6,8.9,11.6c6.2,0,9.1-3.8,9.1-11.3V10.9h-12.4v-36.9
			h54.9V94.6h-34.5c0.1-4.1,0-4.1,0-10.6c-5.1,8.6-8.3,11.2-32.4,10.6H357.1z"/>
		<path class="st5" d="M494.1,65.3h-20.5l-3,29.3h-38.5l25.6-200.2h54.6l28,200.2h-43.1L494.1,65.3z M477.7,25.7h12.4l-6.2-60.8
			L477.7,25.7z"/>
	</g>
</g>
<g id="Layer_4" class="st0">
	<rect x="-23.4" y="-319.4" class="st6" width="595.3" height="841.9"/>
</g>
<g id="Layer_3_copy" class="st0">
	<g class="st4">
		<path class="st5" d="M108.1,203.2H63.3c0-3.6,0.1-7.2,0.1-14.5v-58.1c0-6.7-1.3-9.7-7.5-9.7h-6.2v82.1H5.3V2.7H75
			c19.6,0,33.1,11.6,33.1,35.2v26.4c0,18.6-9.7,26.9-17.5,30.4c7.5,3,17.5,11.3,17.5,26.1V187 M49.7,83.1h5.7c5.7,0,8.1-2.4,8.1-9.7
			V46.5c0-7.3-1.1-9.4-7.3-9.4h-6.5L49.7,83.1L49.7,83.1z"/>
		<path class="st5" d="M200.7,2.7v41.4h-37.9c-0.8,0-1.4,0.6-1.4,1.4v32.8h31.5v42.5h-31.5v38.4c0,0.8,0.6,1.4,1.4,1.4h39.5v42.2
			h-84.8V2.7H200.7z"/>
		<path class="st5" d="M252.6,2.7l20.1,85.1c0.4,1.6,2.8,1.3,2.8-0.3V2.7h37.9v200.2h-39l-23.6-93.4c-0.4-1.6-2.8-1.3-2.8,0.3v93
			h-38.5V2.7H252.6z"/>
		<path class="st5" d="M359.8,202.9c-25,0-37-20.3-37-44.8V50.9c0-26.9,12.4-50.9,49-50.9h7.5c39,0,48.2,24,48.2,48.2v23.1h-43.1
			V46.7c0-4.7-3.8-8.7-8.5-8.5c-4.8,0.2-7.1,3.7-7.1,10.5v107.4c0,7.8,3,11.6,8.9,11.6c6.2,0,9.1-3.8,9.1-11.3v-35.7
			c0-0.8-0.6-1.4-1.4-1.4h-11V82.3h54.9v120.5H395c0.1-3.5,0-4,0-8c0-0.7-0.9-1-1.3-0.4c-3,5-6,8.4-14.7,8.4c-4.2,0-9.5,0-16.5,0
			L359.8,202.9L359.8,202.9z"/>
		<path class="st5" d="M495.5,173.6h-17.9c-0.7,0-1.3,0.5-1.4,1.2l-2.8,28.1h-38.5L460.5,2.7h54.6l28,200.2H500l-3.1-28.1
			C496.9,174.1,496.3,173.6,495.5,173.6z M480.4,134h12.4L488,87.2c-0.2-1.7-2.7-1.7-2.8,0L480.4,134z"/>
	</g>
</g>
<g id="Layer_6" class="st0">
</g>
<g id="Layer_6_00000161590792270127382390000003967045793502183579_">
	<g>
		<path class="st7" d="M29,184H4V19.5h40.5c16.8,0,25,6.9,25,25.4v29.2c0,13.7-6.4,19.2-10.8,21c5.5,2.4,10.8,6.6,10.8,17.9v57.7
			c0,8.3,0,13.3,0,13.3H44.8c-0.1-1.9-0.1-4.6-0.1-13.5V121c0-7.3-1.3-10.4-9.3-10.4H29L29,184L29,184z M29,87.2h6.6
			c6.9,0,9.1-4.4,9.1-11.7v-23c0-7.1-1.3-10.6-9.1-10.6H29V87.2L29,87.2z"/>
		<path class="st7" d="M180.9,19.5v23.9h-31.9v43.1h25v25h-25V159h33.2v25h-58.2V19.5H180.9L180.9,19.5z"/>
		<path class="st7" d="M257.2,19.5l21.5,88.3V19.5h22.8V184h-20.3l-23.9-94.7V184h-22.6V19.5H257.2z"/>
		<path class="st7" d="M379.8,184c-14.8,0-23.7-10.8-23.7-27.9V53.3c0-18.4,6.9-35.4,30.7-35.4h4.9c26.8,0,29.9,17.5,29.9,36.9v16.8
			h-24.3V53.1c0-7.3-1.8-11.3-8-11.3c-5.1,0-7.7,3.8-7.7,11.3v96.2c0,7.7,2.7,11.7,8.2,11.7c6.4,0,9.3-4.4,9.3-10.6v-41.1h-11.3V84
			h34.9v100h-19.1c0-1.3,0,0.7,0-8.9c-1.8,5.5-9.6,8.9-19.2,8.9H379.8L379.8,184z"/>
		<path class="st7" d="M515.8,153.1h-18.4l-3.1,31H472l20.1-164.6h29.6L543.2,184h-24.1L515.8,153.1L515.8,153.1z M500.1,128.5h13.1
			l-6.6-60.8L500.1,128.5z"/>
	</g>
</g>
</svg>
